<svg xmlns="http://www.w3.org/2000/svg" xmlns:svg="http://www.w3.org/2000/svg" id="svg2" width="32" height="32" enable-background="new 0 0 32 32" version="1.1" viewBox="0 0 32 32" xml:space="preserve"><g id="background"><rect width="32" height="32" fill="none"/></g><g id="fullscreen_x5F_cancel"><path d="M4,16v8h8L4,16z M0,4v24h14v2H8v2h16v-0.06c2.702-0.299,5.042-1.791,6.481-3.94H32V4H0z M23,29.999 c-3.865-0.008-6.994-3.135-7-6.999c0.006-3.865,3.135-6.994,7-7c3.864,0.006,6.991,3.135,6.999,7 C29.991,26.864,26.864,29.991,23,29.999z M30,17.35c-0.57-0.707-1.244-1.326-2-1.832V8h-8l6.896,6.896 C25.717,14.328,24.398,14,23,14c-4.972,0-9,4.028-9,9c0,1.054,0.19,2.061,0.523,3H2V6h28V17.35z"/><polygon points="19 25 21 27 23 25 25 27 27 25 25 23 27 21 25 19 23 21 21 19 19 21 21 23"/></g></svg>